<?xml version="1.0" encoding="UTF-8" standalone="no"?>
<!-- Created with Inkscape (http://www.inkscape.org/) -->

<svg
   width="198.17906mm"
   height="38.068298mm"
   viewBox="0 0 198.17906 38.068298"
   version="1.1"
   id="svg5"
   inkscape:version="1.2-beta (1b65182ce9, 2022-04-05)"
   sodipodi:docname="dazaki_logo.svg"
   xmlns:inkscape="http://www.inkscape.org/namespaces/inkscape"
   xmlns:sodipodi="http://sodipodi.sourceforge.net/DTD/sodipodi-0.dtd"
   xmlns="http://www.w3.org/2000/svg"
   xmlns:svg="http://www.w3.org/2000/svg">
  <sodipodi:namedview
     id="namedview7"
     pagecolor="#ffffff"
     bordercolor="#000000"
     borderopacity="0.25"
     inkscape:pageshadow="2"
     inkscape:pageopacity="0.0"
     inkscape:pagecheckerboard="0"
     inkscape:deskcolor="#d1d1d1"
     inkscape:document-units="mm"
     showgrid="false"
     inkscape:zoom="0.73851712"
     inkscape:cx="119.1577"
     inkscape:cy="564.645"
     inkscape:window-width="1920"
     inkscape:window-height="1009"
     inkscape:window-x="-8"
     inkscape:window-y="-8"
     inkscape:window-maximized="1"
     inkscape:current-layer="layer1" />
  <defs
     id="defs2" />
  <g
     inkscape:label="Layer 1"
     inkscape:groupmode="layer"
     id="layer1"
     transform="translate(-5.9104701,-129.46586)">
    <g
       aria-label="DAZAKI"
       id="text63"
       style="font-size:45.8611px;stroke-width:0.264583"
       inkscape:export-filename="text63.svg"
       inkscape:export-xdpi="96"
       inkscape:export-ydpi="96">
      <path
         d="m 26.064274,164.17519 h -1.119656 l -8.957246,-8.95725 h 10.076902 q 2.776746,0 4.74734,-1.97059 1.970594,-1.9706 1.970594,-4.74734 0,-2.77675 -1.970594,-4.74734 -1.970594,-1.9706 -4.74734,-1.9706 H 14.867716 v 25.75208 L 5.9104704,158.57691 V 132.82483 H 26.064274 q 6.494003,0 11.084592,4.59058 4.590588,4.59059 4.590588,11.0846 0,6.494 -4.590588,11.08459 -4.590589,4.59059 -11.084592,4.59059 z"
         style="font-family:Chopsic;-inkscape-font-specification:Chopsic;text-align:center;text-anchor:middle"
         id="path166" />
      <path
         d="m 63.012913,132.82483 q 6.494003,0 11.084592,4.59058 4.590588,4.59059 4.590588,11.0846 v 10.0769 l -8.957246,8.95724 v -10.0769 H 51.816355 v 6.71794 h -8.957246 v -15.67518 q 0,-6.49401 4.590589,-11.0846 4.590588,-4.59058 11.084592,-4.59058 z m 6.717934,15.67518 q 0,-2.77675 -1.970594,-4.74734 -1.970594,-1.9706 -4.74734,-1.9706 H 58.53429 q -2.776747,0 -4.747341,1.9706 -1.970594,1.97059 -1.970594,4.74734 z"
         style="font-family:Chopsic;-inkscape-font-specification:Chopsic;text-align:center;text-anchor:middle"
         id="path168" />
      <path
         d="m 121.23501,132.82483 -22.773793,22.39311 h 18.295173 v 8.95725 H 76.448785 L 99.222583,141.78207 H 80.927408 v -8.95724 z"
         style="font-family:Chopsic;-inkscape-font-specification:Chopsic;text-align:center;text-anchor:middle"
         id="path170" />
      <path
         d="m 139.1495,132.82483 q 6.49401,0 11.08459,4.59058 4.59059,4.59059 4.59059,11.0846 v 10.0769 l -8.95724,8.95724 v -10.0769 h -17.9145 v 6.71794 h -8.95724 v -15.67518 q 0,-6.49401 4.59059,-11.0846 4.59059,-4.59058 11.08459,-4.59058 z m 6.71794,15.67518 q 0,-2.77675 -1.9706,-4.74734 -1.97059,-1.9706 -4.74734,-1.9706 h -4.47862 q -2.77675,0 -4.74734,1.9706 -1.9706,1.97059 -1.9706,4.74734 z"
         style="font-family:Chopsic;-inkscape-font-specification:Chopsic;text-align:center;text-anchor:middle"
         id="path172" />
      <path
         d="m 166.02124,144.02138 h 11.19655 q 2.77675,0 4.74734,-1.97059 1.9706,-1.9706 1.9706,-4.74734 v -4.47862 h 8.95724 v 4.47862 q 0,6.494 -4.59059,11.08459 l -0.11196,0.11197 0.11196,0.11196 q 4.59059,4.59059 4.59059,8.84528 v 1.11966 l -8.95724,8.95724 v -7.83759 q 0,-2.77674 -1.9706,-4.74734 -1.97059,-1.97059 -4.74734,-1.97059 h -11.19655 v 11.19656 h -8.95725 V 138.4231 l 8.95725,-8.95724 z"
         style="font-family:Chopsic;-inkscape-font-specification:Chopsic;text-align:center;text-anchor:middle"
         id="path174" />
      <path
         d="m 204.08953,164.17519 h -8.95724 V 138.4231 l 8.95724,-8.95724 z"
         style="font-family:Chopsic;-inkscape-font-specification:Chopsic;text-align:center;text-anchor:middle"
         id="path176" />
    </g>
  </g>
</svg>
