<?xml version="1.0" standalone="no"?>
<!DOCTYPE svg PUBLIC "-//W3C//DTD SVG 20010904//EN"
 "http://www.w3.org/TR/2001/REC-SVG-20010904/DTD/svg10.dtd">
<svg version="1.0"
    xmlns="http://www.w3.org/2000/svg" width="800.000000pt" height="800.000000pt" viewBox="0 0 800.000000 800.000000" preserveAspectRatio="xMidYMid meet">
    <metadata>
Created by potrace 1.14, written by Peter Selinger 2001-2017
    </metadata>
    <g transform="translate(0.000000,800.000000) scale(0.100000,-0.100000)" fill="#000000" stroke="none">
        <path d="M43 7882 l-43 -3 0 -2874 0 -2875 1000 -1000 c625 -625 1000 -993
1001 -982 1 9 0 21 -1 27 -1 9 -1 59 1 130 0 17 0 41 0 55 -1 14 -1 32 -1 40
0 8 0 39 0 68 0 28 0 74 1 101 1 27 -2 54 -6 60 -3 6 -1 11 5 11 6 0 8 5 4 11
-7 12 -9 101 -2 115 2 5 3 18 2 29 -1 11 -3 31 -3 45 0 14 -1 36 -1 50 -1 14
-1 32 -1 40 1 8 1 29 0 45 0 17 0 36 0 43 1 23 2 37 1 87 0 28 1 73 1 102 1
28 -2 56 -6 62 -3 6 -1 11 5 11 6 0 8 5 5 11 -7 10 -8 74 -2 134 1 17 -1 42
-5 57 -3 15 -3 30 2 33 5 3 5 18 0 34 -4 15 -4 34 0 41 4 7 4 25 0 40 -4 15
-4 33 0 41 5 7 6 17 3 22 -3 5 -5 30 -4 55 3 132 3 151 -4 161 -3 6 -1 11 5
11 6 0 8 5 4 11 -7 12 -9 101 -2 115 2 5 3 18 2 29 -1 11 -3 31 -3 45 0 14 -1
36 -1 50 -1 14 -1 32 -1 40 1 8 1 29 0 45 0 17 0 36 0 43 1 23 2 37 1 90 0 28
0 74 1 101 1 27 -2 54 -6 60 -3 6 -1 11 5 11 6 0 8 5 5 11 -7 10 -8 74 -2 134
1 17 -1 42 -5 57 -3 15 -2 30 3 34 5 3 7 10 3 15 -5 9 -6 34 -3 156 1 28 -2
56 -6 62 -3 6 -1 11 5 11 6 0 8 5 4 11 -7 12 -9 101 -2 115 2 5 3 18 2 29 -3
23 -5 63 -4 85 0 8 0 38 0 65 0 28 1 73 1 102 1 28 -2 56 -6 62 -3 6 -1 11 5
11 6 0 8 5 4 11 -7 12 -9 101 -2 115 2 5 3 18 2 29 -3 23 -5 63 -4 85 0 8 0
38 0 65 0 28 1 73 1 102 1 28 -2 56 -6 62 -3 6 -1 11 5 11 6 0 8 5 5 11 -4 6
-7 34 -6 62 3 122 2 147 -3 156 -4 5 -2 12 3 15 5 4 6 18 2 34 -5 15 -5 36 -1
47 4 11 4 32 -1 47 -4 15 -4 30 1 33 5 3 5 18 1 33 -5 15 -5 36 -1 47 4 11 4
32 -1 47 -4 15 -4 30 1 33 5 3 5 18 1 33 -5 15 -5 36 -1 47 4 11 4 32 -1 47
-4 15 -4 30 1 33 5 3 5 18 2 33 -4 15 -6 41 -5 57 6 60 5 124 -2 134 -3 6 -1
11 5 11 6 0 8 5 4 11 -7 12 -9 101 -2 115 2 5 3 18 2 29 -3 23 -5 63 -4 85 0
8 0 40 0 70 0 30 0 76 1 102 1 25 -2 51 -6 57 -3 6 -1 11 5 11 6 0 8 5 5 11
-7 10 -8 74 -2 134 1 17 -1 42 -5 57 -3 15 -3 30 2 33 5 3 5 18 1 33 -7 28 -6
75 3 99 3 7 1 13 -5 13 -6 0 -7 6 -2 13 4 6 6 20 5 30 -3 16 15 23 43 17 25
-5 113 -2 124 4 6 4 11 2 11 -4 0 -7 6 -8 16 -2 8 5 35 6 60 2 24 -4 44 -4 44
0 0 4 20 4 45 0 24 -4 50 -3 57 1 6 4 19 4 27 0 9 -4 27 -5 41 -2 13 4 45 4
71 1 25 -3 58 -3 72 1 15 4 27 4 27 -1 0 -4 15 -5 33 0 18 4 43 3 55 -1 12 -5
22 -4 22 0 0 5 12 6 28 2 15 -4 41 -5 57 -1 17 3 41 4 55 3 14 -2 32 -3 40 -3
8 0 48 0 89 0 41 0 77 -2 79 -5 3 -2 13 0 23 6 13 7 19 6 19 -1 0 -7 6 -8 16
-2 8 5 35 6 60 2 24 -4 44 -4 44 0 0 4 20 4 45 0 24 -4 50 -3 57 1 6 4 19 4
27 0 9 -4 27 -5 41 -2 13 4 45 4 71 1 25 -3 58 -3 72 1 15 4 27 4 27 -1 0 -4
15 -5 33 0 18 4 43 3 55 -1 12 -5 22 -4 22 1 0 5 12 5 27 1 16 -4 42 -5 58 -1
17 3 49 3 72 0 23 -4 49 -3 57 2 10 6 16 5 16 -2 0 -7 6 -8 18 -1 10 5 24 6
31 2 7 -5 27 -5 45 -1 17 4 40 5 51 3 35 -6 153 -5 164 2 6 3 11 1 11 -5 0 -7
6 -8 18 -1 10 5 24 6 31 2 7 -5 27 -5 45 -1 17 4 40 5 51 3 17 -3 74 -4 138
-2 31 1 171 -14 251 -27 46 -8 178 -44 221 -61 81 -32 200 -88 203 -95 2 -5 8
-8 14 -8 20 0 172 -106 224 -158 13 -13 24 -21 24 -18 0 7 118 -113 168 -170
64 -74 154 -209 199 -299 40 -80 104 -251 108 -292 2 -11 6 -30 9 -41 29 -89
41 -407 22 -547 -12 -84 -14 -100 -16 -100 -2 0 -7 -19 -15 -58 -12 -59 -56
-185 -85 -245 -16 -34 -30 -67 -30 -72 0 -6 -4 -10 -10 -10 -5 0 -10 -4 -10
-10 0 -13 -62 -114 -72 -118 -4 -2 -8 -8 -8 -13 0 -25 -173 -219 -266 -299
-47 -41 -146 -114 -189 -141 -80 -49 -81 -49 -185 -97 -64 -29 -190 -73 -190
-66 0 4 -6 2 -13 -4 -6 -5 -34 -13 -61 -16 -27 -4 -52 -9 -56 -11 -10 -6 -121
-19 -172 -19 -27 -1 -48 -4 -48 -8 0 -4 -13 -3 -29 2 -15 4 -34 4 -41 0 -7 -5
-24 -4 -36 0 -14 6 -26 5 -29 -1 -4 -5 -11 -6 -17 -3 -12 8 -2137 9 -2144 1
-9 -9 1976 -1988 1999 -1993 32 -7 97 -10 97 -4 0 5 91 4 98 -1 7 -5 30 -4 49
3 13 4 25 3 28 -3 4 -5 11 -7 16 -3 6 3 56 7 112 9 123 4 263 15 347 29 14 2
45 7 70 10 25 3 56 8 70 11 14 3 40 8 59 11 44 7 57 10 111 23 25 7 52 13 60
15 8 2 35 9 60 16 25 7 52 13 60 15 51 10 331 112 372 135 10 6 25 10 33 10 8
0 15 5 15 12 0 6 3 9 6 5 7 -7 267 123 272 136 2 4 8 7 13 7 5 0 38 18 73 40
35 22 68 40 74 40 6 0 12 3 14 8 2 4 56 45 121 90 65 46 128 92 140 102 12 10
45 37 72 60 175 146 352 320 487 481 80 95 97 117 156 199 33 47 68 93 76 103
9 9 16 19 16 22 0 3 19 35 43 72 24 38 59 95 77 128 18 33 42 76 53 95 10 19
24 41 31 49 6 8 11 17 10 20 0 3 16 42 36 86 21 44 49 112 64 150 15 39 31 78
36 87 6 10 10 22 10 27 0 5 5 22 12 38 6 15 12 33 13 38 2 6 10 33 19 60 15
43 59 209 72 270 23 104 36 182 49 280 3 28 8 61 10 73 19 114 27 600 12 762
-16 169 -18 192 -33 265 -3 17 -7 44 -9 60 -2 17 -8 53 -14 80 -7 28 -14 64
-17 80 -3 17 -12 54 -20 83 -8 28 -21 78 -29 110 -23 83 -84 258 -115 327 -15
33 -28 63 -28 68 -9 46 -243 477 -263 485 -5 2 -9 8 -9 13 0 6 -18 34 -40 64
-22 30 -51 70 -64 90 -99 146 -374 445 -546 594 -36 31 -69 62 -73 69 -4 6
-12 12 -17 12 -5 0 -23 14 -40 30 -17 17 -34 30 -38 30 -4 0 -21 12 -38 28
-17 15 -50 40 -75 57 -24 16 -46 32 -49 35 -11 12 -229 149 -270 170 -25 12
-48 27 -51 32 -3 5 -10 10 -15 10 -5 0 -65 27 -134 60 -69 33 -134 63 -145 67
-124 51 -265 101 -265 94 0 -3 -7 0 -14 7 -8 6 -29 14 -46 17 -18 2 -50 11
-72 19 -23 8 -43 12 -46 9 -3 -3 -10 -1 -16 4 -6 5 -28 12 -50 15 -21 4 -41 8
-45 10 -3 2 -22 7 -41 10 -19 3 -46 8 -60 11 -14 3 -38 7 -55 10 -16 3 -43 7
-60 10 -112 19 -284 37 -390 39 -39 1 -75 5 -81 8 -5 4 -15 3 -22 -1 -7 -4
-35 -4 -63 -1 -27 4 -52 3 -55 -1 -2 -5 -10 -6 -17 -3 -19 7 -227 10 -227 3 0
-3 -17 -3 -37 0 -21 4 -63 4 -95 1 -32 -3 -66 -2 -77 2 -11 4 -23 3 -26 -2 -3
-5 -11 -7 -18 -4 -19 7 -227 10 -227 3 0 -3 -17 -3 -37 0 -21 4 -63 4 -95 1
-32 -3 -66 -2 -77 2 -11 4 -23 3 -26 -2 -3 -5 -11 -7 -18 -4 -19 7 -227 10
-227 3 0 -3 -17 -3 -37 0 -21 4 -63 4 -95 1 -32 -3 -66 -2 -77 2 -11 4 -23 3
-26 -2 -3 -5 -11 -7 -18 -4 -19 7 -227 10 -227 3 0 -3 -17 -3 -37 0 -21 4 -63
4 -95 1 -32 -3 -66 -2 -77 2 -11 4 -23 3 -26 -2 -3 -5 -11 -7 -18 -4 -19 7
-227 10 -227 3 0 -3 -17 -3 -37 0 -21 4 -63 4 -95 1 -32 -3 -66 -2 -77 2 -11
4 -23 3 -26 -2 -3 -5 -11 -7 -18 -4 -19 7 -227 10 -227 3 0 -3 -17 -3 -37 0
-21 4 -63 4 -95 1 -32 -3 -66 -2 -77 2 -11 4 -23 3 -26 -2 -3 -5 -11 -7 -18
-4 -19 7 -227 10 -227 3 0 -3 -17 -3 -37 0 -21 4 -63 4 -95 1 -32 -3 -66 -2
-77 2 -11 4 -23 3 -26 -2 -3 -5 -11 -7 -18 -4 -19 7 -227 10 -227 3 0 -3 -17
-3 -37 0 -21 4 -63 4 -95 1 -32 -3 -66 -2 -77 2 -11 4 -23 3 -26 -2 -3 -5 -11
-7 -18 -4 -19 7 -227 10 -227 3 0 -3 -17 -3 -37 0 -21 4 -63 4 -95 1 -32 -3
-66 -2 -77 2 -11 4 -23 3 -26 -1 -3 -5 -20 -6 -37 -2 -18 3 -52 5 -75 3z"/>
    </g>
</svg>